<?xml version="1.0" standalone="no"?>
<!DOCTYPE svg PUBLIC "-//W3C//DTD SVG 20010904//EN"
 "http://www.w3.org/TR/2001/REC-SVG-20010904/DTD/svg10.dtd">
<svg version="1.0" xmlns="http://www.w3.org/2000/svg"
 width="1280.000000pt" height="1267.000000pt" viewBox="0 0 1280.000000 1267.000000"
 preserveAspectRatio="xMidYMid meet">
<metadata>
Created by potrace 1.15, written by Peter Selinger 2001-2017
</metadata>
<g transform="translate(0.000000,1267.000000) scale(0.100000,-0.100000)"
fill="#000000" stroke="none">
<path d="M7565 12654 c-700 -72 -1277 -413 -1645 -970 -254 -385 -398 -857
-441 -1444 -14 -197 -7 -599 15 -805 9 -77 15 -147 16 -155 0 -8 -38 57 -84
146 -514 985 -1184 1643 -1948 1909 -398 139 -830 165 -1238 75 -709 -157
-1353 -683 -1723 -1407 -115 -225 -177 -384 -268 -683 -218 -716 -297 -1435
-218 -2000 138 -1002 708 -1591 1669 -1726 152 -21 506 -29 685 -15 364 29
726 97 1205 227 14 3 -40 -38 -120 -93 -1009 -689 -1591 -1461 -1752 -2323
-29 -158 -36 -505 -13 -676 81 -610 411 -1174 927 -1587 817 -654 1687 -896
2428 -677 453 134 863 454 1167 910 536 805 769 2024 667 3495 -8 121 -18 254
-23 295 -5 41 -7 76 -6 78 3 3 224 -280 361 -463 846 -1130 1357 -2173 1563
-3190 73 -365 94 -586 96 -1010 l1 -350 26 -50 c33 -64 101 -127 161 -150 137
-52 305 48 446 264 68 106 112 217 137 348 23 115 23 401 1 566 -90 653 -390
1462 -881 2371 -47 88 -85 161 -83 162 1 2 32 -20 67 -48 136 -106 369 -251
539 -336 391 -196 732 -282 1114 -282 247 0 436 29 648 100 524 174 983 557
1301 1085 385 640 516 1266 392 1885 -142 713 -617 1299 -1329 1641 -481 230
-1078 346 -1680 324 l-180 -6 45 26 c298 175 586 430 786 698 370 495 491
1117 337 1737 -147 594 -557 1173 -1103 1556 -592 416 -1365 621 -2065 548z"/>
</g>
</svg>
